<svg width="20" height="20" viewBox="0 0 20 20" fill="none" xmlns="http://www.w3.org/2000/svg">
<path d="M9.99996 14.3334V17.225M7.10829 17.225H12.8916M15.2083 2.77502H4.79163C4.12858 2.77502 3.4927 3.03842 3.02386 3.50726C2.55502 3.9761 2.29163 4.61198 2.29163 5.27502V11.8334C2.29163 12.4964 2.55502 13.1323 3.02386 13.6011C3.4927 14.07 4.12858 14.3334 4.79163 14.3334H15.2083C15.8713 14.3334 16.5072 14.07 16.9761 13.6011C17.4449 13.1323 17.7083 12.4964 17.7083 11.8334V5.27502C17.7083 4.61198 17.4449 3.9761 16.9761 3.50726C16.5072 3.03842 15.8713 2.77502 15.2083 2.77502Z" stroke="#333333" stroke-width="1.25" stroke-linecap="round" stroke-linejoin="round"/>
<path d="M10 11.0542V6.0542" stroke="#333333" stroke-width="1.25" stroke-miterlimit="10" stroke-linecap="round"/>
<path d="M7.70752 8.94922L9.67419 10.9159C9.71681 10.959 9.76755 10.9932 9.82348 11.0165C9.87941 11.0399 9.93941 11.0519 10 11.0519C10.0606 11.0519 10.1206 11.0399 10.1766 11.0165C10.2325 10.9932 10.2832 10.959 10.3259 10.9159L12.2925 8.94922" stroke="#333333" stroke-width="1.25" stroke-linecap="round" stroke-linejoin="round"/>
</svg>
