<svg width="20" height="20" viewBox="0 0 20 20" fill="none" xmlns="http://www.w3.org/2000/svg">
<path d="M11.8217 2.29419V5.29086C11.8217 5.69669 11.9833 6.08669 12.2717 6.37419C12.5607 6.662 12.9521 6.82351 13.36 6.82336H16.7975" stroke="#333333" stroke-width="1.25" stroke-linecap="round" stroke-linejoin="round"/>
<path d="M16.875 7.14V14.28C16.8585 14.747 16.7496 15.2062 16.5548 15.6309C16.3601 16.0557 16.0831 16.4377 15.74 16.755C15.3966 17.0737 14.9938 17.3217 14.5545 17.4847C14.1153 17.6477 13.6482 17.7226 13.18 17.705H6.855C6.38395 17.7265 5.91328 17.6549 5.46998 17.4941C5.02668 17.3334 4.61946 17.0868 4.27167 16.7683C3.92522 16.4502 3.64545 16.0664 3.44861 15.6392C3.25176 15.2121 3.14176 14.75 3.125 14.28V5.71834C3.14155 5.25131 3.25035 4.79218 3.44515 4.36741C3.63995 3.94263 3.91688 3.5606 4.26 3.24334C4.6034 2.92461 5.00623 2.67665 5.44549 2.51365C5.88474 2.35065 6.35181 2.27578 6.82 2.29334H11.5817C12.3086 2.29077 13.0102 2.55972 13.5492 3.0475L16.0158 5.31584C16.279 5.54257 16.4916 5.82217 16.6396 6.13646C16.7876 6.45075 16.8678 6.79268 16.875 7.14Z" stroke="#333333" stroke-width="1.25" stroke-linecap="round" stroke-linejoin="round"/>
<path d="M10 8.74915V14.3941" stroke="#333333" stroke-width="1.25" stroke-miterlimit="10" stroke-linecap="round"/>
<path d="M12.5883 11.125L10.3675 8.90417C10.3194 8.85555 10.2622 8.81694 10.1991 8.79059C10.136 8.76424 10.0683 8.75067 9.99995 8.75067C9.93159 8.75067 9.8639 8.76424 9.80082 8.79059C9.73774 8.81694 9.68051 8.85555 9.63245 8.90417L7.41162 11.1258" stroke="#333333" stroke-width="1.25" stroke-linecap="round" stroke-linejoin="round"/>
</svg>
